<?xml version="1.0" encoding="UTF-8" standalone="no"?>
<svg
   width="24"
   height="24"
   version="1"
   id="svg7"
   sodipodi:docname="docs.svg"
   inkscape:version="1.4.2 (ebf0e940d0, 2025-05-08)"
   xml:space="preserve"
   xmlns:inkscape="http://www.inkscape.org/namespaces/inkscape"
   xmlns:sodipodi="http://sodipodi.sourceforge.net/DTD/sodipodi-0.dtd"
   xmlns:xlink="http://www.w3.org/1999/xlink"
   xmlns="http://www.w3.org/2000/svg"
   xmlns:svg="http://www.w3.org/2000/svg"><defs
     id="defs1"><linearGradient
       id="linearGradient3"
       inkscape:collect="always"><stop
         style="stop-color:#0047ab;stop-opacity:1;"
         offset="0"
         id="stop3" /><stop
         style="stop-color:#2b41e2;stop-opacity:1;"
         offset="1"
         id="stop4" /></linearGradient><linearGradient
       id="linearGradient1"
       inkscape:collect="always"><stop
         style="stop-color:#4285f4;stop-opacity:1;"
         offset="0"
         id="stop1" /><stop
         style="stop-color:#002659;stop-opacity:1;"
         offset="1"
         id="stop2" /></linearGradient><linearGradient
       inkscape:collect="always"
       xlink:href="#linearGradient1"
       id="linearGradient2"
       x1="22.807846"
       y1="25.008402"
       x2="-39.347679"
       y2="-44.29372"
       gradientUnits="userSpaceOnUse" /><linearGradient
       inkscape:collect="always"
       xlink:href="#linearGradient3"
       id="linearGradient4"
       x1="-7.3583031"
       y1="24.616745"
       x2="34.335659"
       y2="-10.171739"
       gradientUnits="userSpaceOnUse" /></defs><sodipodi:namedview
     id="namedview1"
     pagecolor="#ffffff"
     bordercolor="#000000"
     borderopacity="0.25"
     inkscape:showpageshadow="2"
     inkscape:pageopacity="0.0"
     inkscape:pagecheckerboard="0"
     inkscape:deskcolor="#d1d1d1"
     inkscape:zoom="17.309385"
     inkscape:cx="0"
     inkscape:cy="13.460906"
     inkscape:window-width="1920"
     inkscape:window-height="1011"
     inkscape:window-x="0"
     inkscape:window-y="0"
     inkscape:window-maximized="1"
     inkscape:current-layer="svg7" /><path
     style="opacity:0.2"
     d="m 5,2.5 c -0.554,0 -1,0.446 -1,1 v 18 c 0,0.554 0.446,1 1,1 h 14 c 0.554,0 1,-0.446 1,-1 V 8.5 L 14.5,8 14,2.5 Z"
     id="path1" /><path
     fill="#c03630"
     d="m5 2c-0.554 0-1 0.446-1 1v18c0 0.554 0.446 1 1 1h14c0.554 0 1-0.446 1-1v-13l-5.5-0.5-0.5-5.5z"
     id="path2"
     style="fill:url(#linearGradient2);fill-opacity:1" /><path
     fill="#fff"
     style="opacity:0.2"
     d="m5 2c-0.554 0-1 0.446-1 1v0.5c0-0.554 0.446-1 1-1h9l5.5 5.5h0.5l-6-6z"
     id="path3" /><path
     style="opacity:0.2;fill:#000000;fill-opacity:1"
     d="m 14,2.5 v 5 c 0,0.5523 0.44772,1 1,1 h 5 z"
     id="path4" /><path
     fill="#f36961"
     d="m14 2v5c0 0.5523 0.44772 1 1 1h5l-6-6z"
     id="path5"
     style="fill:url(#linearGradient4);fill-opacity:1;opacity:1" /><path
     id="path2-6"
     style="fill:#ffffff;fill-rule:evenodd;stroke-width:0.0629335"
     d="M 11.770699,8.8747649 A 4.5784166,4.5784162 0 0 0 7.1923664,13.45323 4.5784166,4.5784162 0 0 0 11.770699,18.031563 4.5784166,4.5784162 0 0 0 16.349164,13.45323 4.5784166,4.5784162 0 0 0 11.770699,8.8747649 Z m -0.04013,1.001988 a 3.6589977,3.5764554 0 0 1 3.658881,3.5764771 3.6589977,3.5764554 0 0 1 -0.145347,0.997964 c -0.0731,-0.006 -0.102715,-0.01223 -0.11676,-0.02228 -0.220296,-0.157707 -0.323826,-0.225297 -0.379939,-0.247748 l -0.06778,-0.02711 -0.05422,-0.155814 c -0.0437,-0.12585 -0.06207,-0.206376 -0.09556,-0.41725 -0.0688,-0.4333 -0.07364,-0.453901 -0.126021,-0.543 -0.02594,-0.04413 -0.04711,-0.08272 -0.04711,-0.08562 v -1.45e-4 h 1.45e-4 v -1.45e-4 h 1.44e-4 1.47e-4 c 0.0046,-4e-6 0.03344,0.01405 0.06777,0.03328 0.05717,0.03201 0.09986,0.04715 0.09931,0.0353 -7.3e-5,-0.0015 -0.0084,-0.02775 -0.01852,-0.05838 -0.01013,-0.03064 -0.03459,-0.110839 -0.05435,-0.178228 -0.03735,-0.127363 -0.065,-0.176766 -0.143601,-0.256066 l -0.04671,-0.04697 0.104818,-0.0066 c 0.125875,-0.0078 0.351322,-0.03975 0.361822,-0.051 l 1.44e-4,-1.38e-4 v -1.36e-4 l 1.45e-4,-1.38e-4 v -1.38e-4 l 1.45e-4,-1.38e-4 v -1.38e-4 -1.38e-4 l -1.45e-4,-1.38e-4 c -0.0023,-0.0049 -0.03244,-0.01976 -0.06885,-0.03355 -0.03788,-0.01436 -0.122682,-0.05122 -0.188559,-0.08187 -0.117349,-0.0546 -0.119066,-0.05586 -0.0824,-0.06495 0.02058,-0.0051 0.04473,-0.01736 0.05355,-0.02724 0.01363,-0.01528 0.01255,-0.02023 -0.0068,-0.03341 -0.01254,-0.0085 -0.03395,-0.01576 -0.04751,-0.0161 -0.01356,-3.41e-4 -0.08663,-0.03057 -0.162389,-0.06724 -0.06221,-0.03011 -0.104167,-0.05389 -0.106293,-0.05959 v -1.38e-4 l -1.44e-4,-1.38e-4 v -1.38e-4 -1.36e-4 -1.38e-4 h 1.44e-4 v -1.38e-4 l 1.45e-4,-1.38e-4 h 1.46e-4 c 6.7e-4,-3.41e-4 0.0021,-5.11e-4 0.0042,-1.39e-4 0.0738,0.01245 0.46127,0.02046 0.46127,0.0095 0,-0.02614 -0.61078,-0.337191 -0.729685,-0.371619 -0.04227,-0.01224 -0.123155,-0.03071 -0.179702,-0.04107 l -0.102803,-0.01878 0.08093,-0.02161 c 0.04308,-0.01148 0.07848,-0.0245 0.08066,-0.02952 l 1.46e-4,-1.38e-4 v -1.38e-4 -1.38e-4 -1.38e-4 -1.38e-4 -1.37e-4 c -0.0041,-0.01067 -0.136099,-0.04922 -0.228153,-0.0663 -0.03593,-0.0066 -0.08417,-0.01936 -0.10723,-0.02818 -0.11631,-0.04449 -0.199295,-0.05207 -0.485158,-0.04429 -0.269738,0.0073 -0.438723,0.02482 -0.800008,0.0824 l -0.129106,0.02054 0.04228,-0.0361 c 0.02258,-0.01924 0.04127,-0.03793 0.04241,-0.04241 v -1.38e-4 -1.38e-4 c 0,-5.8e-5 7e-6,-2.21e-4 0,-2.73e-4 v -1.37e-4 l -1.44e-4,-1.38e-4 c -2.8e-5,-5.4e-5 -7.2e-5,-3.57e-4 -1.45e-4,-4.09e-4 -0.01009,-0.01305 -0.225602,0.0036 -0.261436,0.0208 -0.03208,0.01543 -0.03771,0.01572 -0.03771,0.0019 0,-0.04374 -0.103499,-0.03235 -0.215671,0.02362 -0.08423,0.04203 -0.20372,0.120845 -0.21916,0.14454 -0.0053,0.0081 -0.01872,0.01473 -0.02993,0.01477 -0.03189,6.8e-5 -0.47921,0.104305 -0.689554,0.160645 -0.104527,0.028 -0.194433,0.05087 -0.199833,0.05087 -0.02086,0 0.0345,-0.147124 0.06737,-0.179031 l 0.03355,-0.03261 h -0.03771 c -0.05321,0 -0.159172,0.03913 -0.231641,0.08549 -0.04704,0.03009 -0.06388,0.03594 -0.07126,0.02483 -0.0053,-0.008 -0.0064,-0.01925 -0.0025,-0.0251 0.0131,-0.0197 -0.077,0.0015 -0.124409,0.02939 -0.05696,0.03344 -0.1081766,0.117012 -0.1206516,0.196881 l -0.0091,0.05851 -0.209631,0.07542 c -0.252996,0.09101 -0.434736,0.163159 -0.580222,0.230434 -0.234286,0.108334 -0.468094,0.234847 -0.541927,0.293241 -0.0426,0.0337 -0.09462,0.07287 -0.115552,0.0871 -0.02093,0.01422 -0.03817,0.03184 -0.03838,0.03906 -2.38e-4,0.0072 -0.01474,0.03564 -0.03221,0.06321 -0.075808,0.119659 -0.07773,0.198559 -0.0095,0.393093 0.0701,0.199957 0.143727,0.287921 0.325451,0.388394 0.150203,0.08305 0.416284,0.164848 0.647951,0.199163 0.04906,0.0073 0.08952,0.016 0.0926,0.01986 l 1.38e-4,1.44e-4 h 1.37e-4 v 1.45e-4 1.45e-4 c 0,0.0036 -0.01449,0.04095 -0.03221,0.08294 -0.03015,0.07145 -0.03134,0.081 -0.01893,0.148431 0.01504,0.08166 0.03016,0.10428 0.06952,0.10428 0.02293,0 0.02879,-0.0077 0.03597,-0.04724 l 0.0086,-0.04724 0.02671,0.05569 c 0.02993,0.06234 0.04434,0.07173 0.209228,0.138234 0.138615,0.05591 0.145303,0.05645 0.132462,0.0093 -0.01611,-0.0592 -0.02332,-0.08587 -0.02027,-0.08978 l 1.38e-4,-1.45e-4 v -1.44e-4 h 1.38e-4 l 1.37e-4,-1.45e-4 c 5.1e-5,-1.8e-5 2.05e-4,10e-6 2.73e-4,0 h 1.38e-4 c 0.0037,1.45e-4 0.01333,0.01198 0.02899,0.03167 0.03958,0.04979 0.1060576,0.111014 0.1717836,0.158097 0.190946,0.136782 0.251352,0.176437 0.309481,0.203725 0.0983,0.04614 0.204853,0.08497 0.258348,0.09394 0.105228,0.01765 0.29528,0.171017 0.437917,0.353501 0.130725,0.167245 0.146037,0.179252 0.158365,0.123605 0.0038,-0.01685 0.01121,-0.05043 0.01651,-0.07462 l 0.0095,-0.04402 0.06174,0.07744 c 0.143983,0.180636 0.286734,0.425201 0.320891,0.549713 0.01793,0.06537 0.04196,0.06952 0.07126,0.01235 0.01259,-0.02456 0.02708,-0.0447 0.03208,-0.0447 h 1.45e-4 1.45e-4 l 1.44e-4,1.47e-4 h 1.45e-4 c 0.005,0.0027 0.0124,0.03327 0.01664,0.07005 0.0064,0.05578 0.0015,0.09739 -0.02429,0.203191 -0.02852,0.117143 -0.03167,0.148568 -0.0259,0.261301 0.004,0.07828 0.01635,0.16059 0.03167,0.211643 0.03119,0.103865 0.03004,0.08461 0.01221,0.22265 -0.01446,0.111891 -0.01173,0.327666 0.0023,0.452947 a 3.6589977,3.5764554 0 0 1 -0.02919,1.71e-4 3.6589977,3.5764554 0 0 1 -3.6590489,-3.576473 3.6589977,3.5764554 0 0 1 3.6590159,-3.5764761 z" /></svg>
