<svg xmlns="http://www.w3.org/2000/svg" viewBox="0 0 47 47" shape-rendering="crispEdges"><path stroke="#ffffff" d="M1 1.5h7m1 0h5m2 0h2m3 0h1m5 0h1m1 0h1m1 0h1m5 0h1m1 0h7M1 2.5h1m5 0h1m2 0h2m1 0h4m1 0h3m1 0h5m1 0h1m3 0h3m1 0h1m2 0h1m5 0h1M1 3.5h1m1 0h3m1 0h1m3 0h2m1 0h3m1 0h1m2 0h1m1 0h3m5 0h1m1 0h2m1 0h1m2 0h1m1 0h3m1 0h1M1 4.5h1m1 0h3m1 0h1m1 0h2m1 0h1m2 0h3m3 0h2m2 0h1m3 0h2m1 0h1m3 0h2m1 0h1m1 0h3m1 0h1M1 5.5h1m1 0h3m1 0h1m1 0h1m5 0h2m4 0h5m1 0h2m1 0h2m3 0h3m1 0h1m1 0h3m1 0h1M1 6.5h1m5 0h1m1 0h1m1 0h2m3 0h1m2 0h3m3 0h2m5 0h2m5 0h1m5 0h1M1 7.5h7m1 0h1m1 0h1m1 0h1m1 0h1m1 0h1m1 0h1m1 0h1m1 0h1m1 0h1m1 0h1m1 0h1m1 0h1m1 0h1m1 0h1m1 0h1m1 0h7M9 8.5h2m4 0h1m4 0h2m3 0h1m1 0h1m3 0h3m1 0h1m1 0h1M1 9.5h1m3 0h1m1 0h4m2 0h5m1 0h10m1 0h5m3 0h5m2 0h1M3 10.5h1m1 0h1m4 0h1m2 0h2m2 0h4m1 0h1m1 0h2m1 0h2m1 0h2m1 0h2m1 0h7M2 11.5h4m1 0h6m2 0h2m2 0h1m3 0h2m2 0h1m1 0h4m4 0h5m1 0h2M2 12.5h4m2 0h1m1 0h3m6 0h3m1 0h2m1 0h1m4 0h1m1 0h4m2 0h2M1 13.5h5m1 0h1m2 0h3m1 0h2m1 0h4m2 0h1m1 0h4m1 0h1m2 0h3m4 0h1m1 0h1m1 0h1M5 14.5h2m2 0h6m1 0h2m6 0h1m2 0h2m1 0h2m2 0h1m1 0h2m1 0h2m1 0h1m1 0h1M2 15.5h1m1 0h1m1 0h2m2 0h3m1 0h1m3 0h1m1 0h4m3 0h5m2 0h1m3 0h7M3 16.5h1m6 0h3m1 0h1m5 0h1m3 0h1m3 0h1m2 0h3m4 0h1m3 0h1m1 0h2M7 17.5h1m2 0h2m6 0h2m1 0h1m5 0h2m4 0h3m2 0h3m3 0h2M1 18.5h2m1 0h3m5 0h2m4 0h1m2 0h2m4 0h2m1 0h5m1 0h2m1 0h2m2 0h2M1 19.5h1m2 0h1m2 0h2m1 0h7m2 0h1m1 0h3m3 0h2m1 0h3m4 0h1m1 0h1m1 0h1m2 0h1M1 20.5h1m1 0h1m1 0h1m2 0h1m4 0h1m3 0h1m2 0h1m2 0h1m4 0h1m2 0h1m2 0h1m2 0h1m1 0h2m3 0h1M3 21.5h7m1 0h9m1 0h5m1 0h2m1 0h1m2 0h9m2 0h2M1 22.5h1m1 0h1m1 0h1m3 0h5m4 0h4m3 0h1m1 0h1m1 0h3m1 0h2m1 0h2m3 0h4M5 23.5h1m1 0h1m1 0h1m2 0h4m3 0h3m1 0h1m1 0h1m1 0h1m3 0h2m3 0h2m1 0h1m1 0h2m1 0h1M2 24.5h1m1 0h2m3 0h1m1 0h1m2 0h1m1 0h6m3 0h2m3 0h1m2 0h1m1 0h3m3 0h1m3 0h1M5 25.5h6m2 0h1m2 0h1m1 0h1m1 0h7m1 0h1m1 0h2m1 0h1m1 0h1m1 0h6M1 26.5h2m1 0h1m1 0h1m4 0h2m1 0h1m1 0h1m2 0h1m3 0h3m1 0h1m1 0h3m2 0h1m1 0h1m2 0h2m2 0h2M3 27.5h6m3 0h1m3 0h1m7 0h2m1 0h1m3 0h1m2 0h1m2 0h2m3 0h3M8 28.5h1m2 0h3m4 0h2m1 0h1m5 0h2m2 0h1m1 0h1m3 0h1m1 0h1m4 0h2M2 29.5h2m1 0h3m1 0h1m1 0h1m3 0h8m1 0h2m1 0h2m4 0h3m2 0h1m1 0h2m2 0h2M2 30.5h1m2 0h1m2 0h1m3 0h1m3 0h1m2 0h3m1 0h3m1 0h1m1 0h1m1 0h1m1 0h2m1 0h1m1 0h1m1 0h1m1 0h1m1 0h1M1 31.5h1m2 0h2m1 0h2m2 0h2m1 0h4m4 0h2m2 0h3m1 0h5m5 0h2m1 0h2M1 32.5h1m2 0h1m3 0h1m5 0h3m5 0h1m1 0h1m3 0h1m2 0h3m1 0h1m1 0h1m1 0h4m1 0h2M4 33.5h2m1 0h1m2 0h2m2 0h1m1 0h2m2 0h1m3 0h2m2 0h1m2 0h1m1 0h2m2 0h1m1 0h1m1 0h2M1 34.5h4m3 0h1m1 0h1m2 0h4m1 0h2m3 0h2m2 0h1m2 0h3m1 0h1m1 0h2m1 0h2m1 0h1m1 0h1M5 35.5h1m1 0h1m3 0h1m1 0h3m2 0h2m2 0h1m1 0h4m1 0h5m2 0h1m1 0h1m1 0h2m2 0h1M2 36.5h4m2 0h3m2 0h1m1 0h1m3 0h4m3 0h3m4 0h1m1 0h1m3 0h3M1 37.5h1m2 0h2m1 0h1m1 0h1m1 0h2m4 0h10m1 0h1m1 0h2m1 0h2m2 0h6m1 0h2M9 38.5h2m1 0h1m2 0h1m1 0h2m1 0h2m3 0h3m2 0h3m1 0h1m1 0h2m3 0h4M1 39.5h7m1 0h1m2 0h4m3 0h3m1 0h1m1 0h1m1 0h1m1 0h3m2 0h1m2 0h1m1 0h1m1 0h2M1 40.5h1m5 0h1m2 0h2m1 0h1m2 0h2m3 0h1m3 0h4m1 0h1m2 0h1m1 0h1m1 0h1m3 0h1m3 0h1M1 41.5h1m1 0h3m1 0h1m1 0h1m3 0h4m2 0h7m2 0h1m4 0h2m1 0h7M1 42.5h1m1 0h3m1 0h1m3 0h2m2 0h1m1 0h2m1 0h1m1 0h1m2 0h1m1 0h2m1 0h3m1 0h1m5 0h4M1 43.5h1m1 0h3m1 0h1m3 0h1m3 0h2m1 0h1m1 0h3m3 0h3m2 0h1m2 0h1m3 0h1m2 0h1m1 0h2M1 44.5h1m5 0h1m7 0h3m1 0h8m1 0h2m1 0h1m1 0h1m3 0h2m3 0h1M1 45.5h7m1 0h4m1 0h1m2 0h1m3 0h2m1 0h3m1 0h1m1 0h4m1 0h3m1 0h3m3 0h1"/></svg>
